<svg width="100" height="30" viewBox="0 0 100 30" fill="none" xmlns="http://www.w3.org/2000/svg">
<g clip-path="url(#clip0_240_5685)">
<path d="M18.6632 16.4977L25.891 9.2911C26.4341 8.75419 26.7385 8.01444 26.7385 7.25083L26.7505 1.42831C26.7505 1.13002 26.6371 0.843671 26.4282 0.628906L12.5634 14.4634C11.4354 15.5789 11.4294 17.3985 12.5455 18.52C12.5515 18.526 12.5575 18.532 12.5634 18.5379L22.3398 28.2799C23.4678 29.4015 25.2942 29.3955 26.4103 28.268C27.5323 27.1405 27.5264 25.315 26.3983 24.1994L18.6632 16.4977Z" fill="#008B62"/>
<path d="M25.6225 0.325036H3.83754C2.07684 0.325036 0.775718 1.65539 0.775718 3.46896V26.1863C0.751845 27.7792 2.03507 29.0916 3.62865 29.1155C3.65252 29.1155 3.68236 29.1155 3.70027 29.1155C5.28788 29.1453 6.60094 27.8746 6.63079 26.2877C6.63079 26.252 6.63079 26.2162 6.63079 26.1923V5.92682H21.1222L26.4282 0.647183C26.2133 0.432418 25.9268 0.313104 25.6225 0.325036Z" fill="#5BBE91"/>
<path d="M37.792 7.81827V11.7497H36.0552V1.35742H40.7285C43.2054 1.35742 44.4468 2.5267 44.4468 4.31641C44.4468 5.83766 43.3486 6.90552 41.7431 7.2038C42.2266 7.27539 42.5966 7.38874 42.9129 7.60351C43.4979 7.98531 43.8082 8.6833 44.1544 9.8824L44.6796 11.7497H42.8294L42.3459 9.91223C41.9043 8.18814 41.4745 7.81827 39.6542 7.81827H37.792ZM37.792 2.86674V6.55354H40.2271C41.8207 6.55354 42.722 5.84363 42.722 4.66242C42.722 3.52297 42.0117 2.86674 40.2988 2.86674H37.792Z" fill="#231F20"/>
<path d="M49.7827 11.8926C47.0313 11.8926 45.6406 10.1387 45.6406 7.80608C45.6406 5.54508 47.1805 3.61816 49.729 3.61816C52.3193 3.61816 53.5488 5.46753 53.5488 7.63308V8.22965H47.3178C47.4431 9.60772 48.2727 10.4489 49.7529 10.4489C50.8213 10.4489 51.436 10.0074 51.9015 9.18416L53.3399 9.98356C52.6774 11.0813 51.5673 11.8926 49.7827 11.8926ZM47.3357 7.14986H51.8538C51.7822 5.92689 51.1436 5.04397 49.7171 5.04397C48.3622 5.04397 47.5326 5.8374 47.3357 7.14986Z" fill="#231F20"/>
<path d="M58.5982 3.67773C59.9112 3.67773 60.7946 4.26237 61.29 5.40182V3.77319H62.9969V14.8217H61.272V10.0789C60.7289 11.2184 59.7501 11.8448 58.449 11.8448C56.557 11.8448 55.0171 10.4906 55.0171 7.80003C55.0231 5.05581 56.7778 3.67773 58.5982 3.67773ZM61.4213 7.74634C61.4213 6.19526 60.711 5.05581 59.0876 5.05581C57.6074 5.05581 56.7778 6.1356 56.7778 7.77617C56.7778 9.42867 57.5597 10.4249 59.0876 10.4249C60.6931 10.4249 61.4213 9.28549 61.4213 7.74634Z" fill="#231F20"/>
<path d="M72.4867 11.7496H70.7618V9.85845C70.2187 11.2246 69.2399 11.9106 68.0104 11.9106C66.0706 11.9106 65.1455 10.6161 65.1455 8.66531V3.77344H66.8704V8.18805C66.8704 9.56613 67.3419 10.4491 68.7206 10.4491C69.9621 10.4491 70.7439 9.39312 70.7439 7.675V3.77344H72.4808L72.4867 11.7496Z" fill="#231F20"/>
<path d="M78.4732 11.8926C75.7217 11.8926 74.3311 10.1387 74.3311 7.80608C74.3311 5.54508 75.8709 3.61816 78.4195 3.61816C81.0098 3.61816 82.2393 5.46753 82.2393 7.63308V8.22965H76.0142C76.1395 9.60772 76.9691 10.4489 78.4493 10.4489C79.5177 10.4489 80.1324 10.0074 80.5979 9.18416L82.0363 9.98356C81.3619 11.0813 80.2518 11.8926 78.4732 11.8926ZM76.0201 7.14986H80.5383C80.4666 5.92689 79.828 5.04397 78.4015 5.04397C77.0467 5.04397 76.2231 5.8374 76.0201 7.14986Z" fill="#231F20"/>
<path d="M84.6684 9.14293C85.3249 10.0139 86.1367 10.4673 87.3184 10.4673C88.4465 10.4673 88.912 9.92444 88.912 9.3577C88.912 8.53443 87.6885 8.46284 86.2202 8.21825C84.7699 7.99155 83.7135 7.50833 83.7135 6.08253C83.7135 4.68656 84.8833 3.58887 86.8768 3.58887C88.5002 3.58887 89.6402 4.08999 90.5951 5.22347L89.2701 6.35098C88.6554 5.46806 87.8914 5.03853 86.7753 5.03853C85.6652 5.03853 85.2235 5.53965 85.2235 6.09446C85.2235 6.82228 86.1486 6.96545 87.5034 7.16232C89.0552 7.38902 90.4519 7.75889 90.4519 9.3577C90.4519 10.8253 89.2701 11.9229 87.2766 11.9229C85.4682 11.9229 84.2029 11.3085 83.415 10.3301L84.6684 9.14293Z" fill="#231F20"/>
<path d="M97.2139 11.5763C96.8021 11.7732 96.3604 11.8866 95.7636 11.8866C94.0387 11.8866 93.3404 10.9738 93.3404 9.20796V5.19304H91.52V3.77321H93.3583V1.7389L94.9698 0.772461V3.77321H97.2199V5.19901H94.9698V9.01705C94.9698 10.0432 95.3816 10.413 96.1635 10.413C96.5932 10.413 96.8499 10.3414 97.2199 10.1863L97.2139 11.5763Z" fill="#231F20"/>
<path d="M37.7324 29.4381H36.0493V19.0459H38.1144L42.6325 26.6223L43.0742 27.5768L43.0145 26.5507V19.0459H44.6976V29.4381H42.7579L38.0846 21.5634L37.631 20.7103L37.7324 21.6947V29.4381Z" fill="#231F20"/>
<path d="M50.7373 29.5801C47.9859 29.5801 46.5952 27.8262 46.5952 25.4936C46.5952 23.2326 48.1351 21.3057 50.6836 21.3057C53.2739 21.3057 54.5034 23.155 54.5034 25.3206V25.9171H48.2724C48.3977 27.2952 49.2273 28.1364 50.7075 28.1364C51.7758 28.1364 52.3906 27.6949 52.8561 26.8717L54.2945 27.6711C53.632 28.7688 52.5159 29.5801 50.7373 29.5801ZM48.2903 24.8374H52.8084C52.7368 23.6144 52.0981 22.7315 50.6717 22.7315C49.3109 22.7315 48.4872 23.5309 48.2903 24.8374Z" fill="#231F20"/>
<path d="M61.1348 29.2707C60.723 29.4675 60.2813 29.5869 59.6845 29.5869C57.9596 29.5869 57.2613 28.6741 57.2613 26.9083V22.8933H55.4409V21.4675H57.2792V19.4332L58.8907 18.4668V21.4735H61.1408V22.8993H58.8907V26.7174C58.8907 27.7435 59.3025 28.1133 60.0844 28.1133C60.5141 28.1133 60.7708 28.0417 61.1408 27.8866L61.1348 29.2707Z" fill="#231F20"/>
<path d="M66.5658 29.4379H64.4291L62.4058 21.4678H64.1844L65.5511 27.3321L65.7242 28.3701L65.951 27.3321L67.6879 21.4678H69.0845L70.7795 27.3201L70.9765 28.3999L71.1615 27.3321L72.6596 21.4678H74.4143L72.194 29.4379H70.129L68.5772 23.8839L68.3802 23.0308L68.1952 23.9018L66.5658 29.4379Z" fill="#231F20"/>
<path d="M75.4351 25.4527C75.4351 23.1022 76.957 21.3125 79.5235 21.3125C82.1317 21.3125 83.5999 23.132 83.5999 25.4527C83.5999 27.7614 82.078 29.581 79.5235 29.581C76.8914 29.581 75.4351 27.833 75.4351 25.4527ZM81.8333 25.4527C81.8333 23.842 81.123 22.7502 79.5235 22.7502C77.9538 22.7502 77.2017 23.8897 77.2017 25.4527C77.2017 27.0336 77.8881 28.1134 79.5235 28.1134C81.1349 28.1134 81.8333 27.0217 81.8333 25.4527Z" fill="#231F20"/>
<path d="M90.7798 21.6637L90.2964 23.2446C89.9144 23 89.4847 22.8867 88.9415 22.8867C87.9448 22.8867 87.1868 23.71 87.1868 25.3923V29.437H85.4619V21.4669H87.1868V23.3878C87.5449 21.9918 88.2253 21.3535 89.3951 21.3535C89.98 21.3535 90.4217 21.4669 90.7798 21.6637Z" fill="#231F20"/>
<path d="M93.9136 25.9653L97.6439 21.4672H99.6493L96.6292 25.0108L99.8343 29.4374H97.7812L95.2147 25.7207L93.9016 27.2301V29.4374H92.1768V18.1025H93.9016V25.9653H93.9136Z" fill="#231F20"/>
</g>
<defs>
<clipPath id="clip0_240_5685">
<rect width="100" height="30" fill="white"/>
</clipPath>
</defs>
</svg>
